<svg width="1024" height="1024" viewBox="0 0 1024 1024" fill="none" xmlns="http://www.w3.org/2000/svg">
  <defs>
    <clipPath id="app-mask">
      <rect x="112" y="112" width="800" height="800" rx="184"/>
    </clipPath>
    <clipPath id="card-mask">
      <rect x="260" y="286" width="504" height="430" rx="18"/>
    </clipPath>
    <linearGradient id="app-shell-fill" x1="512" y1="112" x2="512" y2="912" gradientUnits="userSpaceOnUse">
      <stop offset="0%" stop-color="#FFFFFF"/>
      <stop offset="42%" stop-color="#F4F4F0"/>
      <stop offset="76%" stop-color="#EEEEEA"/>
      <stop offset="100%" stop-color="#E5E5DE"/>
    </linearGradient>
    <linearGradient id="app-shell-gloss" x1="512" y1="112" x2="512" y2="912" gradientUnits="userSpaceOnUse">
      <stop offset="0%" stop-color="#FFFFFF" stop-opacity="0.62"/>
      <stop offset="30%" stop-color="#FFFFFF" stop-opacity="0.2"/>
      <stop offset="58%" stop-color="#FFFFFF" stop-opacity="0"/>
      <stop offset="78%" stop-color="#070707" stop-opacity="0.018"/>
      <stop offset="100%" stop-color="#070707" stop-opacity="0.055"/>
    </linearGradient>
    <linearGradient id="app-rim-stroke" x1="512" y1="112" x2="512" y2="912" gradientUnits="userSpaceOnUse">
      <stop offset="0%" stop-color="#FFFFFF" stop-opacity="0.82"/>
      <stop offset="58%" stop-color="#070707" stop-opacity="0.028"/>
      <stop offset="82%" stop-color="#070707" stop-opacity="0.055"/>
      <stop offset="100%" stop-color="#070707" stop-opacity="0.095"/>
    </linearGradient>
    <pattern id="canvas-dot-grid" width="44" height="44" patternUnits="userSpaceOnUse">
      <circle cx="1.5" cy="1.5" r="1.75" fill="#070707" fill-opacity="0.24"/>
    </pattern>
    <pattern id="canvas-line-grid" width="176" height="176" patternUnits="userSpaceOnUse">
      <path d="M0 1.7H176M1.7 0V176" stroke="#070707" stroke-width="3.4" stroke-opacity="0.12"/>
    </pattern>
    <radialGradient id="field-glow" cx="50%" cy="46%" r="36%">
      <stop offset="0%" stop-color="#005CFF" stop-opacity="0.06"/>
      <stop offset="100%" stop-color="#005CFF" stop-opacity="0"/>
    </radialGradient>
    <filter id="card-shadow" x="184" y="230" width="680" height="586" filterUnits="userSpaceOnUse" color-interpolation-filters="sRGB">
      <feDropShadow dx="20" dy="24" stdDeviation="20" flood-color="#070707" flood-opacity="0.14"/>
      <feDropShadow dx="7" dy="8" stdDeviation="0" flood-color="#070707" flood-opacity="0.12"/>
    </filter>
  </defs>

  <g transform="matrix(1.05 0 0 1.05 -25.6 -25.6)">
  <rect x="112" y="112" width="800" height="800" rx="184" fill="url(#app-shell-fill)"/>
  <g clip-path="url(#app-mask)">
    <rect x="112" y="112" width="800" height="800" fill="url(#field-glow)"/>
    <rect x="112" y="112" width="800" height="800" fill="url(#canvas-dot-grid)"/>
    <rect x="112" y="112" width="800" height="800" fill="url(#canvas-line-grid)"/>
    <rect x="112" y="112" width="800" height="800" fill="url(#app-shell-gloss)"/>
  </g>
  <rect x="116" y="116" width="792" height="792" rx="180" stroke="url(#app-rim-stroke)" stroke-width="8"/>
  <rect x="130" y="130" width="764" height="764" rx="166" stroke="#FFFFFF" stroke-width="5" stroke-opacity="0.38"/>

  <g filter="url(#card-shadow)" transform="translate(0 18) translate(512 501) scale(1.08) translate(-512 -501)">
    <g transform="rotate(-3 512 512)">
      <rect x="260" y="286" width="504" height="430" rx="18" fill="#F7F7F2"/>
      <g clip-path="url(#card-mask)">
        <path d="M260 354H764" stroke="#070707" stroke-width="5" stroke-opacity="0.9"/>
        <path d="M346 286V354M596 286V354" stroke="#070707" stroke-width="5" stroke-opacity="0.9"/>

        <text x="303" y="333" text-anchor="middle" font-family="Inter, Arial, sans-serif" font-size="28" font-weight="850" fill="#070707">01</text>
        <text x="471" y="333" text-anchor="middle" font-family="Inter, Arial, sans-serif" font-size="29" font-weight="850" fill="#070707">CARD</text>
        <rect x="662" y="313" width="44" height="22" rx="3" fill="#005CFF"/>

        <rect x="318" y="426" width="276" height="18" rx="9" fill="#070707" fill-opacity="0.92"/>
        <rect x="318" y="478" width="340" height="14" rx="7" fill="#070707" fill-opacity="0.44"/>
        <rect x="318" y="526" width="250" height="14" rx="7" fill="#070707" fill-opacity="0.34"/>

        <rect x="318" y="630" width="56" height="34" rx="6" fill="#070707"/>
        <rect x="394" y="630" width="56" height="34" rx="6" fill="#F7F7F2" stroke="#070707" stroke-width="5"/>
        <rect x="630" y="626" width="68" height="42" rx="7" fill="#005CFF"/>
      </g>
      <rect x="260" y="286" width="504" height="430" rx="18" stroke="#070707" stroke-width="8"/>
      <rect x="278" y="304" width="468" height="394" rx="10" stroke="#005CFF" stroke-width="7"/>
    </g>
  </g>
  </g>
</svg>
